<svg data-v-07180fe0="" width="176" height="40" viewBox="0 0 176 40" fill="none" xmlns="http://www.w3.org/2000/svg"><path d="M19.9999 12.8483L20.9929 9.27339C21.1753 8.61668 20.6815 7.96692 19.9999 7.96692V7.96692C19.3183 7.96692 18.8245 8.61668 19.0069 9.27339L19.9999 12.8483Z" fill="#FFFFFF" opacity="1"></path> <path fill-rule="evenodd" clip-rule="evenodd" d="M20 13.9331C20.4873 13.9331 20.9147 13.6081 21.0452 13.1386L22.0382 9.56374C22.4126 8.21584 21.3989 6.8822 20 6.8822C18.601 6.8822 17.5874 8.21584 17.9618 9.56374L18.9548 13.1386C19.0852 13.6081 19.5127 13.9331 20 13.9331ZM20.993 9.27342C21.1754 8.61671 20.6815 7.96695 20 7.96695C19.3184 7.96695 18.8245 8.61671 19.0069 9.27342L20 12.8483L20.993 9.27342Z" fill="#FFFFFF" opacity="1"></path> <path d="M24.8504 21.0333L27.4462 23.6783C27.9236 24.1647 28.7332 24.062 29.074 23.4718V23.4718C29.4147 22.8816 29.0989 22.1291 28.439 21.9589L24.8504 21.0333Z" fill="#FFFFFF" opacity="1"></path> <path fill-rule="evenodd" clip-rule="evenodd" d="M23.9105 20.4916C23.6669 20.9135 23.7345 21.4461 24.0757 21.7938L26.6716 24.4388C27.6515 25.4373 29.3134 25.2264 30.0129 24.0148C30.7124 22.8033 30.064 21.2586 28.7094 20.9092L25.1208 19.9836C24.6491 19.8619 24.1541 20.0697 23.9105 20.4916ZM27.4458 23.679C27.9231 24.1654 28.7327 24.0627 29.0735 23.4725C29.4142 22.8823 29.0984 22.1298 28.4385 21.9596L24.8499 21.034L27.4458 23.679Z" fill="#FFFFFF" opacity="1"></path> <path d="M15.5094 15.6407L12.901 12.9872C12.4231 12.501 11.6134 12.6041 11.2725 13.1945V13.1945C10.9317 13.7849 11.2473 14.5377 11.9073 14.7085L15.5094 15.6407Z" fill="#FFFFFF" opacity="1"></path> <path fill-rule="evenodd" clip-rule="evenodd" d="M16.4487 16.1831C16.6925 15.7609 16.6247 15.228 16.2829 14.8803L13.6745 12.2268C12.6939 11.2292 11.0324 11.4407 10.333 12.6522C9.63357 13.8636 10.2811 15.4082 11.6354 15.7587L15.2376 16.6909C15.7095 16.813 16.205 16.6053 16.4487 16.1831ZM12.9009 12.9872C12.423 12.5011 11.6133 12.6041 11.2724 13.1945C10.9315 13.7849 11.2471 14.5377 11.9071 14.7085L15.5093 15.6407L12.9009 12.9872Z" fill="#FFFFFF" opacity="1"></path> <path d="M24.6382 15.6324L28.2477 14.6966C28.9077 14.5255 29.2232 13.7726 28.8823 13.182V13.182C28.5414 12.5915 27.7316 12.4883 27.2534 12.9743L24.6382 15.6324Z" fill="#FFFFFF" opacity="1"></path> <path fill-rule="evenodd" clip-rule="evenodd" d="M23.6986 16.1748C23.9425 16.5972 24.4382 16.8049 24.9103 16.6825L28.5198 15.7467C29.8738 15.3957 30.5209 13.8512 29.8215 12.6398C29.1221 11.4284 27.4609 11.2166 26.4799 12.2137L23.8648 14.8717C23.5228 15.2193 23.4548 15.7525 23.6986 16.1748ZM28.2475 14.6967C28.9076 14.5256 29.223 13.7727 28.8821 13.1822C28.5412 12.5917 27.7314 12.4884 27.2532 12.9744L24.6381 15.6325L28.2475 14.6967Z" fill="#FFFFFF" opacity="1"></path> <path d="M13.2203 18.0004L6.4222 16.8674C5.72206 16.7507 5.08472 17.2906 5.08472 18.0004V18.0004C5.08472 18.7102 5.72207 19.2501 6.4222 19.1334L13.2203 18.0004Z" fill="#FFFFFF" opacity="1"></path> <path fill-rule="evenodd" clip-rule="evenodd" d="M14.3051 18.0009C14.3051 17.4706 13.9217 17.0181 13.3987 16.9309L6.60056 15.7979C5.23924 15.571 4 16.6208 4 18.0009C4 19.381 5.23924 20.4308 6.60057 20.2039L13.3987 19.0709C13.9217 18.9837 14.3051 18.5312 14.3051 18.0009ZM6.42223 16.8679C5.72209 16.7512 5.08475 17.2911 5.08475 18.0009C5.08475 18.7107 5.7221 19.2506 6.42223 19.1339L13.2204 18.0009L6.42223 16.8679Z" fill="#FFFFFF" opacity="1"></path> <path d="M26.7797 18.0011L33.5778 19.1341C34.2779 19.2508 34.9153 18.7109 34.9153 18.0011V18.0011C34.9153 17.2913 34.2779 16.7514 33.5778 16.8681L26.7797 18.0011Z" fill="#FFFFFF" opacity="1"></path> <path fill-rule="evenodd" clip-rule="evenodd" d="M25.695 18.0007C25.695 18.5309 26.0784 18.9835 26.6014 19.0707L33.3996 20.2037C34.7609 20.4306 36.0001 19.3808 36.0001 18.0007C36.0001 16.6206 34.7609 15.5708 33.3996 15.7977L26.6014 16.9307C26.0784 17.0179 25.695 17.4704 25.695 18.0007ZM33.5779 19.1337C34.278 19.2504 34.9154 18.7105 34.9154 18.0007C34.9154 17.2909 34.278 16.751 33.5779 16.8677L26.7798 18.0007L33.5779 19.1337Z" fill="#FFFFFF" opacity="1"></path> <path d="M19.5952 18.4277L12.0061 29.4614C11.5974 30.0557 11.782 30.8722 12.4066 31.2329V31.2329C13.0425 31.6 13.8563 31.3353 14.1546 30.6644L19.5952 18.4277Z" fill="#FFFFFF" opacity="1"></path> <path fill-rule="evenodd" clip-rule="evenodd" d="M20.1251 17.481C19.6361 17.2072 19.019 17.351 18.7014 17.8128L11.1123 28.8466C10.345 29.9622 10.6915 31.4951 11.8642 32.1721C13.0579 32.8613 14.5857 32.3645 15.1457 31.105L20.5863 18.8682C20.814 18.3561 20.6141 17.7548 20.1251 17.481ZM12.0061 29.4613C11.5973 30.0555 11.7819 30.8721 12.4066 31.2327C13.0424 31.5998 13.8562 31.3352 14.1545 30.6643L19.5952 18.4275L12.0061 29.4613Z" fill="#FFFFFF" opacity="1"></path> <path d="M23.4809 12.0871L27.8203 6.83275C28.2721 6.28578 28.1239 5.46401 27.5095 5.10931V5.10931C26.8952 4.75461 26.1094 5.03715 25.8615 5.70185L23.4809 12.0871Z" fill="#FFFFFF" opacity="1"></path> <path fill-rule="evenodd" clip-rule="evenodd" d="M22.9388 13.0262C23.3975 13.291 23.9803 13.1859 24.3176 12.7775L28.657 7.5232C29.536 6.45886 29.2476 4.85978 28.0522 4.16958C26.8567 3.47939 25.3277 4.02916 24.8454 5.32259L22.4648 11.7078C22.2797 12.2041 22.4801 12.7614 22.9388 13.0262ZM27.8206 6.83245C28.2723 6.28548 28.1241 5.4637 27.5098 5.109C26.8954 4.75431 26.1096 5.03684 25.8618 5.70154L23.4812 12.0868L27.8206 6.83245Z" fill="#FFFFFF" opacity="1"></path> <path d="M23.4566 23.8719L25.8775 30.3313C26.1266 30.996 26.9129 31.2779 27.5276 30.923V30.923C28.1423 30.5681 28.2913 29.7462 27.8402 29.1981L23.4566 23.8719Z" fill="#FFFFFF" opacity="1"></path> <path fill-rule="evenodd" clip-rule="evenodd" d="M22.9142 22.9327C22.4549 23.1979 22.2547 23.7562 22.4408 24.2528L24.8617 30.7122C25.346 32.0045 26.8747 32.5527 28.0699 31.8627C29.2651 31.1726 29.5547 29.5746 28.6777 28.509L24.2941 23.1828C23.9571 22.7733 23.3735 22.6676 22.9142 22.9327ZM25.8774 30.3315C26.1265 30.9962 26.9128 31.2782 27.5275 30.9233C28.1423 30.5684 28.2912 29.7464 27.8402 29.1984L23.4566 23.8721L25.8774 30.3315Z" fill="#FFFFFF" opacity="1"></path> <path d="M16.6771 12.1293L14.2602 5.67723C14.0112 5.01255 13.225 4.73054 12.6103 5.08543V5.08543C11.9956 5.44032 11.8467 6.26224 12.2978 6.8102L16.6771 12.1293Z" fill="#FFFFFF" opacity="1"></path> <path fill-rule="evenodd" clip-rule="evenodd" d="M17.2194 13.0685C17.6786 12.8034 17.8788 12.2451 17.6928 11.7486L15.2759 5.29646C14.7918 4.00405 13.263 3.45571 12.0678 4.14576C10.8726 4.83582 10.5831 6.43395 11.4603 7.49942L15.8396 12.8185C16.1766 13.2279 16.7602 13.3336 17.2194 13.0685ZM14.2601 5.67698C14.0111 5.0123 13.2249 4.73029 12.6102 5.08518C11.9955 5.44007 11.8466 6.26198 12.2978 6.80995L16.677 12.1291L14.2601 5.67698Z" fill="#FFFFFF" opacity="1"></path> <path d="M50.724 30.046C52.594 30.046 53.54 29.056 53.54 27.12V10.268H51.142V26.504C51.142 27.384 50.702 27.824 49.844 27.824C48.964 27.824 48.018 27.758 47.006 27.648L47.556 30.046H50.724ZM45.202 15.372C44.432 19.134 43.222 22.148 41.572 24.414L43.596 26.196C45.224 23.908 46.522 20.586 47.512 16.274L45.202 15.372ZM58.776 14.8L56.664 16.12C58.16 19.86 59.348 23.27 60.228 26.328L62.318 24.876C61.482 22.016 60.294 18.65 58.776 14.8ZM72.246 25.558C70.046 26.35 67.472 26.966 64.546 27.428L64.854 29.694C67.604 29.21 70.068 28.55 72.246 27.758V25.558ZM68.374 9.938C67.538 12.27 66.57 14.404 65.448 16.34C65.14 16.758 64.81 17.044 64.458 17.22L65.03 19.332L68.484 18.87C67.428 20.63 66.526 21.884 65.822 22.588C65.536 22.852 65.184 23.094 64.788 23.27L65.382 25.36C67.626 25.052 70.024 24.436 72.554 23.468V21.378C71.102 21.928 69.694 22.39 68.286 22.742C69.628 21.026 71.256 18.408 73.192 14.866L71.124 14.074C70.618 15.02 70.134 15.9 69.694 16.736C68.88 16.868 68.066 16.978 67.252 17.066C68.374 15.438 69.474 13.348 70.552 10.796L68.374 9.938ZM77.57 13.436V27.186H72.664V29.43H84.698V27.186H79.88V13.436H84.126V11.214H73.28V13.436H77.57ZM94.846 9.828V13.458H88.62V15.658H94.846V19.354H87.344V21.576H94.846V30.332H97.156V21.576H103.998C103.954 23.864 103.822 25.162 103.602 25.448C103.36 25.734 102.986 25.888 102.502 25.932C101.754 25.932 100.94 25.91 100.082 25.91L100.698 28.066H102.106C102.656 28.044 103.206 27.978 103.756 27.868C104.372 27.736 104.834 27.494 105.12 27.186C105.868 26.438 106.242 23.82 106.264 19.354H103.206L103.624 14.558V13.458H97.156V9.828H94.846ZM97.156 19.354V15.658H101.314L100.984 19.354H97.156ZM102.59 9.872L101.424 11.61C102.876 12.292 104.328 13.238 105.736 14.426L106.968 12.512C105.648 11.5 104.174 10.62 102.59 9.872ZM110.164 11.258V13.26H114.916V14.69H117.248V13.26H122.352V14.25H124.684V13.26H129.436V11.258H124.684V9.938H122.352V11.258H117.248V9.938H114.916V11.258H110.164ZM111.836 14.118L110.34 15.526C111.616 16.45 112.628 17.33 113.332 18.166L114.784 16.714C113.992 15.834 113.002 14.976 111.836 14.118ZM111.462 18.254L109.944 19.706C111.22 20.674 112.188 21.554 112.892 22.368L114.366 20.894C113.574 20.014 112.606 19.134 111.462 18.254ZM112.738 23.182C111.99 25.25 111.088 27.274 110.076 29.254L112.188 30.2C113.112 28.264 113.97 26.174 114.718 23.974L112.738 23.182ZM115.092 15.68V17.66H121.208V18.672H116.06V30.222H118.172V26.526H121.208V30.068H123.364V26.526H126.466V27.582C126.466 27.934 126.268 28.132 125.916 28.132L124.134 28.066L124.706 30.09H126.598C127.896 30.09 128.556 29.408 128.556 28.044V18.672H123.364V17.66H129.546V15.68H127.5L128.204 15.196C127.786 14.712 127.236 14.14 126.532 13.524L125.036 14.448C125.498 14.888 125.894 15.284 126.224 15.68H123.364V14.426H121.208V15.68H115.092ZM121.208 20.542V21.818H118.172V20.542H121.208ZM118.172 23.534H121.208V24.81H118.172V23.534ZM126.466 24.81H123.364V23.534H126.466V24.81ZM126.466 21.818H123.364V20.542H126.466V21.818ZM138.088 10.114C136.834 14.184 134.898 17.462 132.28 19.926L134.106 21.51C136.636 19.068 138.682 15.57 140.222 10.994L138.088 10.114ZM146.668 21.774L144.6 22.478C145.326 23.622 146.03 24.898 146.712 26.284C143.896 26.724 140.992 27.032 138.044 27.23C139.848 24.722 141.608 21.686 143.324 18.144L141.058 17.352C138.198 23.666 136.02 26.988 134.546 27.318L134.942 29.562C139.628 29.254 143.874 28.836 147.658 28.264C147.944 28.924 148.23 29.606 148.516 30.31L150.672 29.342C149.55 26.658 148.208 24.128 146.668 21.774ZM146.294 9.938L144.314 11.038C145.568 15.35 147.768 18.848 150.914 21.554L152.564 19.64C149.572 17.132 147.482 13.898 146.294 9.938ZM163.834 14.932V16.758H157.63V22.104H155.144V24.238H162.426C162.272 24.502 162.096 24.744 161.898 25.008C160.732 26.372 158.466 27.538 155.122 28.462L156.376 30.464C159.72 29.54 162.14 28.242 163.636 26.548C164.186 25.866 164.648 25.096 165.044 24.238H165.088C166.254 26.834 169.158 28.902 173.8 30.486L175.076 28.418C171.182 27.362 168.63 25.976 167.442 24.238H174.856V22.104H172.326V16.758H166.166V14.932H163.834ZM159.874 22.104V18.892H163.834V19.222C163.768 20.234 163.614 21.202 163.35 22.104H159.874ZM165.77 22.104C165.968 21.224 166.1 20.278 166.166 19.222V18.892H170.082V22.104H165.77ZM155.254 11.632V13.744H160.116V15.592H162.448V13.744H167.552V15.592H169.884V13.744H174.746V11.632H169.884V9.894H167.552V11.632H162.448V9.894H160.116V11.632H155.254Z" fill="rgb(255,255,255)"></path></svg>