<svg width="69" height="26" viewBox="0 0 69 26" fill="none" xmlns="http://www.w3.org/2000/svg">
<path fill-rule="evenodd" clip-rule="evenodd" d="M68.7585 13.922C68.5644 12.6824 67.7957 11.61 66.6885 11.0344C65.9085 10.6209 65.0422 10.4 64.1608 10.3899C63.99 10.3899 63.8169 10.3899 63.6462 10.3899C63.5346 10.3899 63.53 10.3899 63.5277 10.2752C63.5277 10.2385 63.5277 10.2041 63.5277 10.1697C63.5277 9.25224 63.5277 8.13527 63.5277 7.22701C63.5299 6.84351 63.5056 6.46032 63.4549 6.08022C63.3842 5.55288 63.2344 5.0394 63.0108 4.55729C62.6084 3.67362 61.9281 2.94813 61.0752 2.49307C60.1963 2.01564 59.2157 1.75986 58.2172 1.74766C57.78 1.74766 56.5959 1.74766 56.1564 1.74766C55.9582 1.74766 55.9628 1.74766 55.9628 1.55958V0.132976C55.9663 0.0977527 55.9547 0.0626911 55.9309 0.036646C55.9081 0.0137102 55.833 0.0182974 55.833 0.0182974H51.4949C51.4714 0.016786 51.4482 0.0232479 51.4288 0.036646C51.4118 0.0542877 51.4034 0.0786776 51.4061 0.10316V1.516C51.4061 1.57105 51.4061 1.6261 51.4061 1.68344C51.4061 1.70069 51.399 1.71717 51.3865 1.72893C51.3739 1.74068 51.3571 1.74664 51.34 1.74536H48.457C48.3933 1.74536 48.3773 1.7683 48.3751 1.8371C48.3728 1.90591 48.3751 1.93343 48.3751 1.9816V6.11004C48.3751 6.37151 48.3637 6.3394 48.6028 6.3394H51.2125C51.4402 6.3394 51.4174 6.70866 51.4174 6.70866V10.0619C51.4174 10.0619 51.4174 10.399 51.2467 10.399H47.011C46.8174 10.399 46.8402 10.6284 46.8402 10.6284V14.8073C46.8305 14.8595 46.8459 14.9133 46.8819 14.9522C46.9178 14.9911 46.97 15.0105 47.0224 15.0045H51.1874C51.4152 15.0045 51.4152 14.9862 51.4152 15.2339V24.5619C51.4152 24.8165 51.3947 24.7912 51.6429 24.7912H55.7419C55.9969 24.7912 55.9696 24.8119 55.9696 24.5619V15.2752C55.9696 15.2201 55.9696 15.1628 55.9696 15.1077C55.9696 15.0527 55.9856 15.0091 56.063 15.0068H56.2269H59.6428H62.7057C62.9802 15.0044 63.2517 15.064 63.5004 15.1811C63.966 15.3887 64.2717 15.8474 64.2861 16.36C64.2861 16.4908 64.2861 16.6238 64.2861 16.7545C64.2861 18.1077 64.2861 18.4357 64.2861 19.7889C64.2861 20.5366 63.9809 20.8486 63.3433 20.8486H59.8682C59.8045 20.8486 59.7885 20.8692 59.7908 20.9403C59.7931 21.0114 61.1298 24.0733 61.4031 24.6811L61.4168 24.711C61.4361 24.757 61.481 24.7869 61.5306 24.7866H61.5807C61.8403 24.7866 62.4324 24.7866 62.9926 24.7866C63.4184 24.7866 64.4705 24.7866 64.8964 24.7591C65.2921 24.7269 65.6836 24.6539 66.0646 24.5412C67.7327 24.0462 68.8705 22.4944 68.8496 20.7431C68.8496 18.7591 68.8496 16.9954 68.8496 15.0091C68.8529 14.6447 68.8224 14.2807 68.7585 13.922V13.922ZM59.053 10.3256C59.0542 10.3433 59.0485 10.3607 59.0369 10.3741C59.0254 10.3874 59.009 10.3956 58.9915 10.3967H58.8685H56.1359H56.0334C55.9969 10.3967 55.9673 10.367 55.9673 10.3302C55.9673 10.2752 55.9673 10.2178 55.9673 10.1628L55.9423 6.55958C55.9423 6.35087 55.9264 6.35545 56.1404 6.35545H58.24C58.3562 6.35155 58.4723 6.36626 58.5839 6.39903C58.8514 6.47301 59.0416 6.71168 59.0553 6.99077C59.0553 7.03894 59.0553 7.0871 59.0553 7.13527V10.1995C59.053 10.2431 59.0553 10.2912 59.053 10.3256V10.3256ZM47.1067 20.2477C47.1067 20.2302 47.0996 20.2135 47.0872 20.2014C47.0747 20.1893 47.0579 20.1828 47.0406 20.1834C46.9791 20.1834 46.9176 20.1834 46.8562 20.1834H42.8482C42.7116 20.1834 42.7116 20.1834 42.7093 20.0435C42.7093 20.0022 42.7093 19.9587 42.7093 19.9174V6.56188C42.7093 6.35316 42.6934 6.35775 42.9097 6.36004H45.376C45.6037 6.36004 45.5877 6.3738 45.5877 6.14903C45.5877 4.75454 45.5877 3.36081 45.5877 1.96784C45.5877 1.73848 45.6082 1.73848 45.36 1.73848H35.3402C35.1558 1.73848 35.1262 1.72013 35.1262 1.94949V6.13068C35.1262 6.36004 35.1079 6.36004 35.3539 6.36004H37.7996C38.0137 6.36004 37.9977 6.36004 38 6.56188V19.938C38 20.211 38.0205 20.1811 37.7564 20.1811C36.6952 20.1811 34.5842 20.1811 34.0263 20.1811C33.8873 20.1811 33.8555 20.2683 33.8555 20.2683L31.8606 24.6582C31.8606 24.6582 31.8196 24.7316 31.8378 24.7637C31.8561 24.7958 31.8766 24.7866 32.0041 24.7866H36.8409H46.9973C47.0793 24.7866 47.093 24.7706 47.0975 24.6926C47.0975 24.6582 47.0975 24.6238 47.0975 24.5894V20.383C47.1112 20.3302 47.1089 20.2889 47.1067 20.2477V20.2477ZM13.4037 0.293527H9.07695C9.05239 0.293519 9.02887 0.303499 9.01172 0.321203C8.99457 0.338908 8.98525 0.362837 8.98586 0.387563C8.98586 1.48619 8.9517 12.0963 8.9517 17.4495V20.1536C8.96931 20.3678 8.88879 20.5784 8.73308 20.7254C8.57736 20.8724 8.36351 20.9397 8.1524 20.9082H6.03913C5.92299 20.9082 5.91388 20.9082 5.92071 21.0458C5.92754 21.1834 7.25289 24.1215 7.51477 24.6972C7.54153 24.7557 7.59887 24.7939 7.66279 24.7958C8.11824 24.7958 9.85576 24.8188 10.3454 24.7545C10.7816 24.7038 11.2052 24.574 11.5956 24.3715C12.4518 23.9128 13.0006 23.1605 13.2989 22.1605C13.4432 21.659 13.5145 21.139 13.5107 20.6169C13.5107 17.3035 13.5107 13.9892 13.5107 10.6743C13.5107 7.50683 13.4925 1.2316 13.4902 0.396738C13.4918 0.348101 13.4562 0.306317 13.4082 0.300407L13.4037 0.293527ZM33.2156 14.571H30.7106C30.588 14.5706 30.4738 14.5079 30.4068 14.4045C30.3399 14.301 30.3291 14.1705 30.3781 14.0573L33.7462 6.46555C33.7561 6.44293 33.7541 6.41677 33.7408 6.39597C33.7275 6.37517 33.7047 6.36252 33.6801 6.36233H29.9113C29.7675 6.36167 29.6337 6.28793 29.5556 6.16627C29.4776 6.04461 29.4657 5.89148 29.5242 5.75912L32.0291 0.105453C32.0391 0.082839 32.0371 0.0566801 32.0238 0.0358769C32.0105 0.0150736 31.9877 0.00242794 31.9631 0.00224233H27.4997C27.4708 0.00118982 27.4443 0.0186567 27.4337 0.0458203L24.7853 6.02747C24.5166 6.57334 24.2569 7.1238 24.0247 7.68573C23.8774 8.02955 23.7504 8.38184 23.6444 8.74077C23.5926 8.92008 23.5733 9.10733 23.5874 9.29353C23.6089 9.74568 23.8556 10.1564 24.2433 10.3853C24.3596 10.4588 24.4842 10.5181 24.6145 10.5619C24.9178 10.6713 25.2374 10.7279 25.5595 10.7293H27.2469C27.313 10.7293 25.5755 14.5779 25.2635 15.3165C25.1062 15.6776 24.9716 16.0484 24.8604 16.4266C24.8131 16.588 24.7916 16.756 24.7967 16.9243C24.8003 17.3965 25.0503 17.8321 25.4548 18.071C25.5772 18.1476 25.7078 18.2099 25.8442 18.2568C26.1558 18.3638 26.4828 18.418 26.812 18.4174H31.5851C31.6133 18.4182 31.6393 18.4019 31.6511 18.3761L33.2953 14.6743C33.3024 14.6524 33.299 14.6285 33.286 14.6096C33.2731 14.5906 33.252 14.5789 33.2292 14.5779L33.2156 14.571ZM22.1733 17.211C21.9191 16.6615 21.7877 16.0625 21.7884 15.4564C21.7748 15.1811 21.7474 14.9036 21.7269 14.6284C21.6935 14.1987 21.6602 13.7698 21.6268 13.3417C21.5903 12.883 21.5584 12.4243 21.5243 11.9655C21.4901 11.5068 21.4537 11.0481 21.4172 10.5894C21.3808 10.1307 21.3512 9.70408 21.317 9.26142C21.2829 8.81876 21.2487 8.41967 21.2169 7.99766C21.1827 7.53894 21.1508 7.08022 21.1167 6.62151C21.1121 6.54457 21.103 6.46798 21.0893 6.39215C21.0757 6.36004 20.939 6.36921 20.8616 6.36921H16.651C16.5668 6.36921 16.5554 6.38527 16.5599 6.46784C16.5827 6.74995 16.6032 7.03435 16.626 7.31646C16.6738 7.94032 16.7262 8.56188 16.774 9.18343C16.8104 9.66738 16.8423 10.1513 16.881 10.6353C16.9311 11.2973 16.9827 11.9602 17.0359 12.6238C17.0936 13.3792 17.1512 14.1322 17.2089 14.883C17.234 15.2018 17.2545 15.5206 17.2932 15.8371C17.3834 16.5519 17.5173 17.2604 17.694 17.9587C17.93 18.9277 18.2619 19.8705 18.6846 20.7729C18.973 21.3946 19.3289 21.9823 19.7458 22.5252C19.7868 22.5779 19.8482 22.6743 19.8824 22.6674C19.9166 22.6605 19.9006 22.6444 19.9166 22.6123C20.1875 22.0596 22.0458 17.8302 22.1801 17.5665C22.2826 17.3394 22.2621 17.383 22.1869 17.2178L22.1733 17.211ZM5.81368 6.34399H1.57804C1.51508 6.34051 1.45199 6.34051 1.38903 6.34399C1.36626 6.34399 1.3617 6.36004 1.35943 6.36692C1.35715 6.3738 1.34121 6.516 1.33438 6.59628C1.30022 7.05499 1.26834 7.51371 1.2319 7.97243C1.20002 8.39444 1.16358 8.81646 1.1317 9.23619C1.09982 9.65591 1.06566 10.1215 1.0315 10.5642C0.997346 11.0068 0.96091 11.4816 0.926752 11.9403C0.892594 12.399 0.858435 12.8577 0.824277 13.3165L0.721801 14.6032C0.701306 14.8784 0.676257 15.1559 0.662594 15.4311C0.663658 16.0376 0.531454 16.6368 0.275465 17.1857C0.202594 17.3509 0.182099 17.3073 0.275465 17.5114C0.407544 17.7775 2.22477 21.9151 2.52764 22.5412C2.54814 22.5871 2.55725 22.6009 2.57319 22.6009C2.58913 22.6009 2.66883 22.5275 2.70982 22.4747C3.12585 21.9313 3.48169 21.3437 3.77101 20.7224C4.19199 19.8196 4.52305 18.8769 4.75933 17.9082C4.93786 17.2103 5.07248 16.5017 5.1624 15.7866C5.20111 15.4701 5.2216 15.1513 5.24665 14.8325C5.30586 14.0802 5.36051 13.3279 5.41972 12.5733C5.46982 11.9105 5.52447 11.2477 5.57457 10.5848C5.61101 10.1009 5.64289 9.61692 5.6816 9.13298C5.72867 8.51218 5.77801 7.88986 5.82962 7.266C5.85012 6.98389 5.87289 6.69949 5.89339 6.41738C5.92299 6.36692 5.9116 6.35545 5.82735 6.35087L5.81368 6.34399ZM31.371 20.1674C30.7903 20.1674 27.4997 20.1788 26.5524 20.1674C25.8081 20.1621 25.0691 20.0407 24.3617 19.8073C24.3265 19.7945 24.2876 19.8116 24.2729 19.8463L22.2234 24.3256C22.2069 24.3605 22.221 24.4022 22.2553 24.4197C22.6969 24.6364 23.1785 24.7582 23.6694 24.7775C24.011 24.7775 23.986 24.7775 24.3275 24.7775H29.3374C29.3664 24.7785 29.3929 24.7611 29.4035 24.7339L31.437 20.2637C31.4426 20.2448 31.4401 20.2245 31.4301 20.2075C31.4202 20.1906 31.4037 20.1785 31.3847 20.1743L31.371 20.1674ZM64.2815 6.25683C64.2815 6.28596 64.305 6.30958 64.3339 6.30958C64.3817 6.30958 64.4295 6.30958 64.4773 6.30958H66.5542C66.7182 6.31081 66.8818 6.29233 67.0415 6.25454C68.2197 6.0025 69.0028 4.87466 68.8337 3.67359C68.6646 2.47252 67.601 1.60845 66.3997 1.69626C65.1984 1.78406 64.2698 2.79375 64.2747 4.00683C64.2747 4.71325 64.2747 5.42197 64.2747 6.12839C64.2788 6.17387 64.2856 6.21907 64.2952 6.26371L64.2815 6.25683Z" fill="#FF2442"/>
</svg>
